<svg width="256" height="256" viewBox="0 0 256 256" fill="none" xmlns="http://www.w3.org/2000/svg">
  <rect width="256" height="256" rx="56" fill="#141318"/>
  <path d="M176.19 39.31C187.45 28.05 205.7 28.05 216.96 39.31C228.22 50.57 228.22 68.82 216.96 80.08L124.48 172.56L82.06 130.14L176.19 39.31Z" fill="#F6F5F3"/>
  <path d="M82.06 130.14L124.48 172.56L112.27 184.77C103.18 193.86 92.11 200.72 79.92 204.81L44.56 216.69C40.53 218.04 36.08 216.99 33.08 213.98C30.07 210.98 29.01 206.53 30.37 202.5L42.24 167.14C46.34 154.95 53.19 143.88 62.28 134.79L82.06 130.14Z" fill="#FB7185"/>
  <path d="M82.06 130.14L124.48 172.56" stroke="#141318" stroke-width="15" stroke-linecap="round" stroke-linejoin="round"/>
  <path d="M176.19 39.31C187.45 28.05 205.7 28.05 216.96 39.31C228.22 50.57 228.22 68.82 216.96 80.08L124.48 172.56L82.06 130.14L176.19 39.31Z" stroke="#141318" stroke-width="15" stroke-linejoin="round"/>
  <path d="M82.06 130.14L62.28 149.92C53.19 159.01 46.34 170.08 42.24 182.27L30.37 217.63L65.73 205.76C77.92 201.66 88.99 194.81 98.08 185.72L117.86 165.94" stroke="#141318" stroke-width="15" stroke-linecap="round" stroke-linejoin="round"/>
  <path d="M188.15 51.28L204.99 68.12" stroke="#141318" stroke-width="15" stroke-linecap="round"/>
  <path d="M55 196C63.08 188.68 72.13 188.34 80.35 193.29C88.93 198.45 97.74 198.29 105.9 191.56" stroke="#FDE68A" stroke-width="12" stroke-linecap="round"/>
</svg>
